PathFileType	4	(X/Y/Z)	c:/Users/goper/Files/vsCode/490R/osim_files/A02/A02_Slow_06.trc
DataRate	CameraRate	NumFrames	NumMarkers	Units                	OrigDataRate	OrigDataStartFrame	OrigNumFrames
250.00	250.00	5	36	mm	250.0	2128	2837
                Frame#	Time	Mobility_markerset:LPSIS			Mobility_markerset:LASIS			Mobility_markerset:LTH1			Mobility_markerset:LTH2			Mobility_markerset:LTH3			Mobility_markerset:LTH4			Mobility_markerset:LLFE			Mobility_markerset:LMFE			Mobility_markerset:LSH1			Mobility_markerset:LSH2			Mobility_markerset:LSH3			Mobility_markerset:LSH4			Mobility_markerset:LLMAL			Mobility_markerset:LMMAL			Mobility_markerset:LCAL			Mobility_markerset:LMTP5			Mobility_markerset:LTOE			Mobility_markerset:LMTP1			Mobility_markerset:RPSIS			Mobility_markerset:RASIS			Mobility_markerset:RTH1			Mobility_markerset:RTH2			Mobility_markerset:RTH3			Mobility_markerset:RTH4			Mobility_markerset:RLFE			Mobility_markerset:RMFE			Mobility_markerset:RSH1			Mobility_markerset:RSH2			Mobility_markerset:RSH3			Mobility_markerset:RSH4			Mobility_markerset:RLMAL			Mobility_markerset:RMMAL			Mobility_markerset:RCAL			Mobility_markerset:RMTP1			Mobility_markerset:RTOE			Mobility_markerset:RMTP5		
		X1	Y1	Z1	X2	Y2	Z2	X3	Y3	Z3	X4	Y4	Z4	X5	Y5	Z5	X6	Y6	Z6	X7	Y7	Z7	X8	Y8	Z8	X9	Y9	Z9	X10	Y10	Z10	X11	Y11	Z11	X12	Y12	Z12	X13	Y13	Z13	X14	Y14	Z14	X15	Y15	Z15	X16	Y16	Z16	X17	Y17	Z17	X18	Y18	Z18	X19	Y19	Z19	X20	Y20	Z20	X21	Y21	Z21	X22	Y22	Z22	X23	Y23	Z23	X24	Y24	Z24	X25	Y25	Z25	X26	Y26	Z26	X27	Y27	Z27	X28	Y28	Z28	X29	Y29	Z29	X30	Y30	Z30	X31	Y31	Z31	X32	Y32	Z32	X33	Y33	Z33	X34	Y34	Z34	X35	Y35	Z35	X36	Y36	Z36

2128	8.50800	-3532.34888	480.76501	229.39484	-3426.38452	469.70816	345.68024	0.00000	0.00000	0.00000	-3408.69995	645.62177	374.23300	-3441.72778	713.76562	395.32382	0.00000	0.00000	0.00000	0.00000	0.00000	0.00000	0.00000	0.00000	0.00000	0.00000	0.00000	0.00000	-3400.43311	432.15335	351.87006	-3474.28247	434.70447	356.17618	-3444.06543	401.48837	363.11578	-3293.85986	197.80612	333.48987	-3306.99316	201.04405	250.51146	-3224.09277	216.80693	291.57635	-3338.58594	92.71387	337.00421	-3391.36963	91.87459	270.35397	-3347.61353	94.20808	225.63889	0.00000	0.00000	0.00000	0.00000	0.00000	0.00000	0.00000	0.00000	0.00000	0.00000	0.00000	0.00000	-3457.91870	639.99585	83.83932	-3455.85791	597.50769	82.98975	-3420.94238	482.61728	76.50305	-3448.31616	488.86905	205.70105	0.00000	0.00000	0.00000	0.00000	0.00000	0.00000	-3466.86060	298.29349	96.02986	-3463.14185	250.88951	103.20496	-3409.05322	94.39881	113.31727	-3422.39209	97.26826	196.88629	0.00000	0.00000	0.00000	-3546.49951	64.88286	187.61835	-3566.68921	77.01284	152.36609	-3536.26831	62.41361	95.66019
2129	8.51200	-3538.72412	482.14548	228.72771	-3429.98022	467.69208	343.83762	0.00000	0.00000	0.00000	0.00000	0.00000	0.00000	-3446.53418	714.41260	394.84735	0.00000	0.00000	0.00000	0.00000	0.00000	0.00000	0.00000	0.00000	0.00000	0.00000	0.00000	0.00000	-3406.08813	431.84772	350.20255	-3481.41992	435.15958	355.43817	-3451.74731	401.39182	362.39255	-3306.18433	195.42554	332.97784	-3318.79443	198.11354	249.71992	-3235.14502	211.63940	290.31827	-3353.16895	91.68792	337.00955	-3405.13794	91.43369	271.02524	-3362.48682	92.26864	225.86224	-3443.66846	485.83704	211.02992	-3255.61279	534.19672	220.38103	0.00000	0.00000	0.00000	0.00000	0.00000	0.00000	-3460.47534	639.96704	83.61115	-3458.21338	597.51135	82.79633	-3422.80249	482.75839	76.35029	0.00000	0.00000	0.00000	0.00000	0.00000	0.00000	0.00000	0.00000	0.00000	-3467.83276	298.19409	95.97617	-3463.99585	250.87502	103.19807	-3409.16431	94.48547	113.36749	-3424.08472	98.42493	197.35588	0.00000	0.00000	0.00000	-3546.57666	64.71878	187.63254	-3566.78906	76.84255	152.37804	-3536.35352	62.30400	95.63269
2130	8.51600	-3545.05640	483.57791	228.02797	-3439.37061	468.77841	343.78305	0.00000	0.00000	0.00000	-3418.94604	646.38947	373.51489	-3451.19458	714.93085	394.40375	0.00000	0.00000	0.00000	0.00000	0.00000	0.00000	0.00000	0.00000	0.00000	0.00000	0.00000	0.00000	-3412.78906	431.19144	349.23950	-3488.67139	435.61636	354.67154	-3459.59644	401.34180	361.67694	-3318.06982	192.58810	332.25967	-3330.63208	195.16360	248.90309	-3246.28101	206.46484	288.98190	-3367.63916	90.44100	337.09982	-3420.04810	91.35631	271.40118	-3377.69727	90.47382	226.07828	-3446.01440	486.18820	210.44283	-3259.68311	534.74652	219.17104	0.00000	0.00000	0.00000	0.00000	0.00000	0.00000	-3462.98950	639.92169	83.40423	-3460.59668	597.20361	81.93407	-3424.60620	482.84708	76.25780	0.00000	0.00000	0.00000	0.00000	0.00000	0.00000	0.00000	0.00000	0.00000	-3468.94238	298.21945	95.90218	-3464.78271	250.82141	103.11591	-3409.29053	94.61663	113.41758	-3424.22485	98.50008	197.34569	0.00000	0.00000	0.00000	-3546.69238	64.60848	187.64044	-3566.88208	76.62643	152.39169	-3536.41577	62.19407	95.64532
2131	8.52000	-3551.16724	484.90100	227.32556	-3445.97412	468.22574	343.03378	0.00000	0.00000	0.00000	0.00000	0.00000	0.00000	-3455.83716	715.39398	393.96249	0.00000	0.00000	0.00000	-3531.05444	508.14136	346.35690	0.00000	0.00000	0.00000	0.00000	0.00000	0.00000	-3424.47485	430.98022	352.59659	-3495.74097	435.84299	353.86694	-3467.50317	401.12628	360.96298	-3329.94507	189.55121	331.50177	-3342.64404	192.10985	248.12292	-3257.65039	201.11713	287.57846	-3382.26538	89.31937	337.14301	-3434.85083	91.19780	271.70917	-3392.87720	88.66769	226.24014	0.00000	0.00000	0.00000	-3247.07959	527.20581	232.18944	0.00000	0.00000	0.00000	0.00000	0.00000	0.00000	-3465.46851	639.77728	83.25100	-3462.95410	597.42743	82.45722	-3426.50708	483.01102	76.09821	0.00000	0.00000	0.00000	0.00000	0.00000	0.00000	0.00000	0.00000	0.00000	-3469.93213	298.04391	95.81991	-3465.92090	251.20343	103.60442	-3409.42090	94.69753	113.47561	-3424.43262	98.60728	197.35744	0.00000	0.00000	0.00000	-3546.81128	64.47960	187.63167	-3567.02222	76.44216	152.39651	-3536.49219	62.10314	95.68272
2132	8.52400	-3557.16333	486.19009	226.59740	0.00000	0.00000	0.00000	0.00000	0.00000	0.00000	0.00000	0.00000	0.00000	-3460.51318	715.88336	393.51868	0.00000	0.00000	0.00000	0.00000	0.00000	0.00000	0.00000	0.00000	0.00000	0.00000	0.00000	0.00000	-3428.96851	427.97604	349.62802	-3502.92383	436.05542	353.09467	-3475.29932	400.61642	360.49771	-3341.97559	186.54552	330.69141	-3354.82666	189.06320	247.23972	-3269.22852	195.71121	286.25540	-3396.05176	87.97957	337.59027	-3449.75684	91.13544	271.98520	-3405.28735	85.76600	225.42212	0.00000	0.00000	0.00000	0.00000	0.00000	0.00000	0.00000	0.00000	0.00000	0.00000	0.00000	0.00000	-3468.05664	639.71381	83.05769	-3465.35864	597.36237	82.27242	-3428.39087	483.12704	75.93865	0.00000	0.00000	0.00000	0.00000	0.00000	0.00000	0.00000	0.00000	0.00000	-3471.06836	298.07254	95.75218	-3466.75830	251.17371	103.52465	-3409.52881	94.77957	113.53303	-3424.57153	98.67687	197.34358	0.00000	0.00000	0.00000	-3546.90942	64.31133	187.64975	-3567.11475	76.23340	152.40364	-3536.56250	61.94781	95.68793
